<svg width="57" height="56" viewBox="0 0 57 56" fill="none" xmlns="http://www.w3.org/2000/svg">
<path d="M38.4627 7.37725C37.2494 8.01466 36.3097 9.07214 35.8193 10.352C34.9632 9.4362 33.8322 8.82392 32.5974 8.60773C31.3625 8.39153 30.0908 8.58316 28.9745 9.15365C27.7635 9.79414 26.8248 10.8506 26.331 12.1284C25.4745 11.211 24.3422 10.5978 23.1059 10.3815C21.8695 10.1653 20.5963 10.3578 19.4792 10.9301C18.3225 11.5436 17.4153 12.5405 16.9133 13.7497L10.6747 2.90804C9.93567 1.61947 8.72943 0.664415 7.3057 0.240578C5.88198 -0.183258 4.34979 -0.04342 3.02632 0.631145C2.35046 0.989077 1.75371 1.47961 1.27175 2.07342C0.789796 2.66724 0.43252 3.35214 0.221287 4.08717C0.0100549 4.82221 -0.0507975 5.59229 0.0423683 6.35138C0.135534 7.11047 0.380805 7.84299 0.763518 8.50513L11.4572 27.0305C10.2126 26.5848 8.85167 26.5864 7.60818 27.0351C6.36469 27.4839 5.3163 28.3517 4.64315 29.4894C3.97001 30.6272 3.71413 31.9639 3.91949 33.2698C4.12484 34.5757 4.77861 35.7694 5.76846 36.6456L18.3231 48.0231C18.8518 48.5024 19.3805 49.0029 19.8881 49.4893L20.4379 50.0391C23.6179 53.0222 27.6591 54.9244 31.9845 55.4741C36.4063 56.0373 40.8904 55.1281 44.7436 52.887L46.7526 51.7239C51.4538 49.0087 54.8859 44.5396 56.2959 39.2971C57.706 34.0546 56.9789 28.4667 54.2742 23.7596L46.1323 9.6612C45.3929 8.36728 44.1834 7.40799 42.7551 6.98265C41.3268 6.55731 39.7896 6.69863 38.4627 7.37725Z" fill="white"/>
<path d="M38.4627 7.37725C37.2494 8.01466 36.3097 9.07214 35.8193 10.352C34.9632 9.4362 33.8322 8.82392 32.5974 8.60773C31.3625 8.39153 30.0908 8.58316 28.9745 9.15365C27.7635 9.79414 26.8248 10.8506 26.331 12.1284C25.4745 11.211 24.3422 10.5978 23.1059 10.3815C21.8695 10.1653 20.5963 10.3578 19.4792 10.9301C18.3225 11.5436 17.4153 12.5405 16.9133 13.7497L10.6747 2.90804C9.93567 1.61947 8.72943 0.664415 7.3057 0.240578C5.88198 -0.183258 4.34979 -0.04342 3.02632 0.631145C2.35046 0.989077 1.75371 1.47961 1.27175 2.07342C0.789796 2.66724 0.43252 3.35214 0.221287 4.08717C0.0100549 4.82221 -0.0507975 5.59229 0.0423683 6.35138C0.135534 7.11047 0.380805 7.84299 0.763518 8.50513L11.4572 27.0305C10.2126 26.5848 8.85167 26.5864 7.60818 27.0351C6.36469 27.4839 5.3163 28.3517 4.64315 29.4894C3.97001 30.6272 3.71413 31.9639 3.91949 33.2698C4.12484 34.5757 4.77861 35.7694 5.76846 36.6456L18.3231 48.0231C18.8518 48.5024 19.3805 49.0029 19.8881 49.4893L20.4379 50.0391C23.6179 53.0222 27.6591 54.9244 31.9845 55.4741C36.4063 56.0373 40.8904 55.1281 44.7436 52.887L46.7526 51.7239C51.4538 49.0087 54.8859 44.5396 56.2959 39.2971C57.706 34.0546 56.9789 28.4667 54.2742 23.7596L46.1323 9.6612C45.3929 8.36728 44.1834 7.40799 42.7551 6.98265C41.3268 6.55731 39.7896 6.69863 38.4627 7.37725ZM52.2863 24.8946C54.696 29.0788 55.3473 34.0482 54.097 38.7121C52.8468 43.376 49.7973 47.3534 45.6177 49.7713L43.6157 50.9273C40.2162 52.8681 36.2847 53.6695 32.3968 53.2141C28.5088 52.7587 24.8689 51.0705 22.0099 48.3967L21.4248 47.8398C20.9031 47.3463 20.3674 46.8317 19.8176 46.3383L7.29815 34.9397C6.6494 34.3239 6.26785 33.4783 6.23535 32.5844C6.20285 31.6905 6.52197 30.8194 7.12428 30.1581C7.72658 29.4967 8.56409 29.0978 9.45713 29.0468C10.3502 28.9958 11.2276 29.2969 11.9013 29.8854L14.5659 32.3174C14.7639 32.4986 15.0193 32.6042 15.2875 32.6158C15.5556 32.6274 15.8192 32.5442 16.0321 32.3808H16.0674C16.2653 32.2108 16.3986 31.9778 16.4448 31.721C16.491 31.4642 16.4474 31.1994 16.3211 30.971L2.73025 7.36315C2.50076 6.9658 2.35377 6.52625 2.29809 6.07078C2.24241 5.61531 2.27918 5.15329 2.40619 4.71236C2.53321 4.27143 2.74786 3.86065 3.03731 3.5046C3.32675 3.14855 3.68505 2.85455 4.09075 2.64017C4.89453 2.24563 5.81833 2.17178 6.67458 2.43363C7.53083 2.69548 8.25532 3.27339 8.70094 4.05002L17.2164 18.797L20.2335 24.0134C20.384 24.2742 20.6319 24.4646 20.9227 24.5425C21.2136 24.6205 21.5235 24.5798 21.7843 24.4293C22.0451 24.2788 22.2354 24.0309 22.3134 23.74C22.3914 23.4492 22.3507 23.1393 22.2002 22.8785L19.1902 17.655C18.9607 17.2577 18.8137 16.8181 18.758 16.3626C18.7023 15.9072 18.7391 15.4452 18.8661 15.0042C18.9931 14.5633 19.2078 14.1525 19.4972 13.7965C19.7867 13.4404 20.145 13.1464 20.5507 12.932C21.3545 12.5375 22.2783 12.4636 23.1345 12.7255C23.9908 12.9873 24.7153 13.5653 25.1609 14.3419L26.7117 17.0276L29.2424 21.4263C29.4024 21.6703 29.6498 21.8437 29.9337 21.911C30.2176 21.9782 30.5165 21.9343 30.769 21.7882C31.0215 21.6421 31.2086 21.4049 31.2917 21.1252C31.3749 20.8456 31.3478 20.5447 31.2162 20.2844L28.6784 15.8927C28.4489 15.4954 28.302 15.0558 28.2463 14.6003C28.1906 14.1449 28.2274 13.6828 28.3544 13.2419C28.4814 12.801 28.696 12.3902 28.9855 12.0342C29.2749 11.6781 29.6332 11.3841 30.0389 11.1697C30.8427 10.7752 31.7665 10.7013 32.6228 10.9632C33.479 11.225 34.2035 11.803 34.6491 12.5796L36.2 15.2653L37.9482 18.3176C38.0183 18.4563 38.116 18.5792 38.2352 18.6788C38.3545 18.7784 38.4928 18.8526 38.6417 18.8969C38.7907 18.9411 38.9471 18.9546 39.1014 18.9363C39.2557 18.9181 39.4046 18.8685 39.5391 18.7907C39.6736 18.7129 39.7908 18.6084 39.8835 18.4838C39.9762 18.3591 40.0426 18.2168 40.0784 18.0656C40.1142 17.9145 40.1188 17.7575 40.0919 17.6045C40.065 17.4515 40.0072 17.3056 39.9219 17.1757L38.1737 14.0881C37.9442 13.6908 37.7973 13.2512 37.7416 12.7957C37.6859 12.3403 37.7227 11.8782 37.8497 11.4373C37.9767 10.9964 38.1913 10.5856 38.4808 10.2296C38.7702 9.87351 39.1285 9.5795 39.5342 9.36513C40.3373 8.97268 41.2594 8.89998 42.114 9.16172C42.9686 9.42347 43.6919 10.0001 44.1374 10.775L52.2863 24.8946Z" fill="#000001"/>
</svg>
